{"title":"Giselle (1977)  Makarova, Baryshnikov  (Act I&amp;II)","uid":5302665,"size":792026166,"categoryP":"video","categoryS":"movies","magnet":"?xt=urn:btih:0845289f8472a224974073fe04da9a0a8127a540&amp;dn=Giselle+%281977%29++Makarova%2C+Baryshnikov++%28Act+I%26II%29&amp;tr=udp%3A%2F%2Ftracker.openbittorrent.com%3A80&amp;tr=udp%3A%2F%2Fopen.demonii.com%3A1337&amp;tr=udp%3A%2F%2Ftracker.coppersurfer.tk%3A6969&amp;tr=udp%3A%2F%2Fexodus.desync.com%3A6969","seeders":1,"leechers":0,"uploader":"johnefp","files":3,"time":1264275786,"description":"Cast\n  (Episode Credited cast)\n\tMikhail Baryshnikov\t... \tCount Albrecht\n\tMartin Bookspan\t... \tOffscreen announcer (voice)\n\tGeorge De La Pena\t\t\n\tNanette Glushak\t\t\n\tNatalya Makarova\t... \tGiselle\n\tAlexander Minz\t\t\n\tRichard Schafer\t\t\n\n &lt;a href=&quot;\nhttp://www.imdb.com/title/tt0491393/&quot; rel=&quot;nofollow&quot; target=&quot;_NEW&quot;&gt;\nhttp://www.imdb.com/title/tt0491393/&lt;/a&gt;\n\n\n\n Video #2\n      ID : 2\n      Format : VC-1\n      Format profile : MP@ML\n      Codec ID : WMV3\n      Codec ID/Info : Windows Media Video 9\n      Codec ID/Hint : WMV3\n      Duration : 1h 35mn\n      Bit rate mode : Variable\n      Bit rate : 1 000 Kbps\n      Width : 640 pixels\n      Height : 480 pixels\n      Display aspect ratio : 4/3\n      Frame rate : 25.000 fps\n      Resolution : 24 bits\n      Scan type : Progressive\n      Bits/(Pixel*Frame) : 0.130\n      Stream size : 681 MiB (90%)\n   Audio #1\n      ID : 1\n      Format : WMA2\n      Format profile : L\n      Codec ID : 161\n      Codec ID/Info : Windows Media Audio 2\n      Description of the codec : Windows Media Audio 9.2 -  96 kbps, 44 kHz, stereo 2-pass VBR\n      Duration : 1h 35mn\n      Bit rate mode : Variable\n      Bit rate : 96.2 Kbps\n      Channel(s) : 2 channels\n      Sampling rate : 44.1 KHz\n      Resolution : 16 bits\n      Stream size : 65.5 MiB (9%)\n\n\n\n   Please seed at least as much as you D/L.\n   =======================================\n   Thanks \n\n   John","torrent":{"xt":"urn:btih:0845289f8472a224974073fe04da9a0a8127a540","amp;dn":"Giselle+%281977%29++Makarova%2C+Baryshnikov++%28Act+I%26II%29","amp;tr":["udp%3A%2F%2Ftracker.openbittorrent.com%3A80","udp%3A%2F%2Fopen.demonii.com%3A1337","udp%3A%2F%2Ftracker.coppersurfer.tk%3A6969","udp%3A%2F%2Fexodus.desync.com%3A6969"],"infoHash":"0845289f8472a224974073fe04da9a0a8127a540","infoHashBuffer":{"type":"Buffer","data":[8,69,40,159,132,114,162,36,151,64,115,254,4,218,154,10,129,39,165,64]},"announce":[],"urlList":[]}}